ply
format ascii 1.0
comment Created in Blender version 4.0.1
element vertex 32
property float x
property float y
property float z
element face 48
property list uchar uint vertex_indices
end_header
1 1 1
1 1 -1
1 -1 1
1 -1 -1
-1 1 1
-1 1 -1
-1 -1 1
-1 -1 -1
1 2.971468 1
1 2.971468 -1
1 0.97146785 1
1 0.97146785 -1
-1 2.971468 1
-1 2.971468 -1
-1 0.97146785 1
-1 0.97146785 -1
1 3.0153368 2.94456
1 3.0153368 0.94456005
1 1.0153368 2.94456
1 1.0153368 0.94456005
-1 3.0153368 2.94456
-1 3.0153368 0.94456005
-1 1.0153368 2.94456
-1 1.0153368 0.94456005
1 1 2.9605885
1 1 0.96058846
1 -1 2.9605885
1 -1 0.96058846
-1 1 2.9605885
-1 1 0.96058846
-1 -1 2.9605885
-1 -1 0.96058846
3 4 2 0
3 2 7 3
3 6 5 7
3 1 7 5
3 0 3 1
3 4 1 5
3 4 6 2
3 2 6 7
3 6 4 5
3 1 3 7
3 0 2 3
3 4 0 1
3 12 10 8
3 10 15 11
3 14 13 15
3 9 15 13
3 8 11 9
3 12 9 13
3 12 14 10
3 10 14 15
3 14 12 13
3 9 11 15
3 8 10 11
3 12 8 9
3 20 18 16
3 18 23 19
3 22 21 23
3 17 23 21
3 16 19 17
3 20 17 21
3 20 22 18
3 18 22 23
3 22 20 21
3 17 19 23
3 16 18 19
3 20 16 17
3 28 26 24
3 26 31 27
3 30 29 31
3 25 31 29
3 24 27 25
3 28 25 29
3 28 30 26
3 26 30 31
3 30 28 29
3 25 27 31
3 24 26 27
3 28 24 25
