ply
format ascii 1.0
comment Created in Blender version 4.0.2
element vertex 12
property float x
property float y
property float z
element face 6
property list uchar uint vertex_indices
end_header
-1.0124319 -0.9962766 -0.9297172
0.98756814 -0.9962766 -0.9297172
-1.0124319 1.0037234 -0.9297172
0.98756814 1.0037234 -0.9297172
-1.0124319 -0.9962766 0.941436
0.98756814 -0.9962766 0.941436
-1.0124319 1.0037234 0.941436
0.98756814 1.0037234 0.941436
0.037856612 -0.9962766 0.88246715
-0.06272033 -0.9962766 -0.87914073
0.037856612 1.0037234 0.88246715
-0.06272033 1.0037234 -0.87914073
3 1 2 0
3 1 3 2
3 5 6 4
3 5 7 6
3 9 10 8
3 9 11 10
